PathFileType	4	(X/Y/Z)	output.trc
DataRate	CameraRate	NumFrames	NumMarkers	Units	OrigDataRate	OrigDataStartFrame	OrigNumFrames
120	120	15	18	mm	120	1694	1
Frame#	Time	K4ABT_JOINT_PELVISx			K4ABT_JOINT_SPINE_NAVEL			T8			C7			K4ABT_JOINT_CLAVICLE_LEFT			K4ABT_JOINT_SHOULDER_LEFT			K4ABT_JOINT_ELBOW_LEFT			K4ABT_JOINT_WRIST_LEFT			K4ABT_JOINT_HAND_LEFT			K4ABT_JOINT_HANDTIP_LEFT			K4ABT_JOINT_THUMB_LEFT			K4ABT_JOINT_CLAVICLE_RIGHT			GH			Elbow_Midpoint			Wrist_Midpointx			K4ABT_JOINT_HAND_RIGHT			K4ABT_JOINT_HANDTIP_RIGHT			K4ABT_JOINT_THUMB_RIGHTx
		X1	Y1	Z1	X2	Y2	Z2	X3	Y3	Z3	X4	Y4	Z4	X5	Y5	Z5	X6	Y6	Z6	X7	Y7	Z7	X8	Y8	Z8	X9	Y9	Z9	X10	Y10	Z10	X11	Y11	Z11	X12	Y12	Z12	X13	Y13	Z13	X14	Y14	Z14	X15	Y15	Z15	X16	Y16	Z16	X17	Y17	Z17	X18	Y18	Z18
1694	23.285228	-252.691584	-244.178569	1545.179647	272.199049	-88.663612	1511.090083	285.403552	35.727863	1482.668371	268.898711	225.952361	1441.796368	263.716171	200.277356	1477.260068	207.580784	174.222947	1589.955876	117.732790	-29.317723	1700.638939	-21.471434	-183.159122	1679.571594	-83.613309	-198.538022	1737.626577	-113.451439	-106.531880	1748.577970	-49.392699	-132.428411	1799.155355	281.306790	189.046945	1420.437755	283.407756	132.617271	1316.523207	234.835374	-115.715126	1309.839726	142.484302	-303.056108	1341.002120	108.818980	-382.672816	1374.234163	84.884061	-474.323881	1385.941060	73.684653	-380.018452	1397.386086
1695	23.293526	-253.623803	-244.294290	1545.076587	272.086453	-88.765566	1510.695663	284.989216	35.618628	1482.286616	268.764501	225.869812	1441.699362	263.655681	200.172456	1477.139137	207.625741	173.916005	1589.799061	117.983611	-29.420075	1700.882184	-21.852129	-182.494301	1678.743074	-84.085717	-198.635049	1736.483297	-113.874166	-106.772082	1748.008649	-49.425657	-132.596317	1798.665977	281.008350	188.973393	1420.264171	283.346559	132.720342	1316.295364	237.151606	-116.033535	1309.732763	145.393769	-303.459276	1341.867865	113.588968	-384.841023	1372.950581	91.934929	-477.789976	1381.802630	75.761026	-381.185511	1399.732738
1696	23.301825	-254.556022	-244.410012	1544.973527	271.973858	-88.867519	1510.301243	284.574879	35.509392	1481.904860	268.630291	225.787264	1441.602356	263.595192	200.067556	1477.018205	207.670698	173.609062	1589.642246	118.234432	-29.522426	1701.125429	-22.232825	-181.829481	1677.914554	-84.558126	-198.732076	1735.340016	-114.296893	-107.012283	1747.439329	-49.458616	-132.764223	1798.176598	280.709910	188.899841	1420.090587	283.285362	132.823414	1316.067520	239.467838	-116.351943	1309.625801	148.303235	-303.862444	1342.733611	118.358957	-387.009230	1371.666999	98.985798	-481.256071	1377.664200	77.837400	-382.352570	1402.079391
1697	23.310124	-255.658625	-244.371131	1543.210304	271.930678	-88.759582	1508.826122	284.240578	35.654095	1480.900404	268.564210	225.999002	1441.377180	263.600278	200.174778	1476.692036	207.767103	172.897047	1589.039155	118.543251	-30.548479	1699.770753	-22.315853	-182.243791	1675.880966	-84.632440	-199.107307	1733.259434	-114.605816	-107.765393	1746.499937	-49.147786	-133.449670	1796.254455	280.485569	189.187941	1419.703281	283.259264	132.904075	1315.879047	241.354194	-116.477796	1309.853995	151.172474	-304.239870	1343.478264	123.055432	-388.377931	1371.341620	104.867393	-482.697580	1376.799298	80.120158	-382.965706	1402.216760
1698	23.318423	-256.762776	-244.330845	1541.431994	271.888130	-88.649738	1507.341181	283.907004	35.801106	1479.890289	268.498748	226.213414	1441.150839	263.605960	200.283929	1476.364003	207.863975	172.181350	1588.432008	118.852597	-31.582926	1698.401555	-22.396175	-182.667908	1673.836427	-84.703135	-199.485066	1731.170334	-114.913704	-108.523164	1745.557183	-48.833831	-134.139821	1794.319291	280.261902	189.479327	1419.314032	283.233485	132.984533	1315.690932	243.236644	-116.601900	1310.085235	154.041348	-304.617062	1344.221817	127.751239	-389.739367	1371.024948	110.738362	-484.120689	1375.964145	82.404792	-383.573808	1402.334052
1699	23.326722	-257.866927	-244.290559	1539.653684	271.845581	-88.539894	1505.856239	283.573430	35.948117	1478.880174	268.433285	226.427826	1440.924498	263.611642	200.393079	1476.035969	207.960848	171.465654	1587.824862	119.161942	-32.617374	1697.032358	-22.476498	-183.092024	1671.791888	-84.773831	-199.862825	1729.081233	-115.221592	-109.280935	1744.614429	-48.519877	-134.829972	1792.384127	280.038235	189.770713	1418.924784	283.207707	133.064991	1315.502816	245.119094	-116.726003	1310.316476	156.910222	-304.994254	1344.965370	132.447047	-391.100803	1370.708276	116.609331	-485.543799	1375.128992	84.689425	-384.181910	1402.451344
1700	23.335021	-258.971079	-244.250273	1537.875374	271.803032	-88.430050	1504.371298	283.239856	36.095127	1477.870059	268.367823	226.642238	1440.698157	263.617324	200.502229	1475.707935	208.057721	170.749957	1587.217715	119.471288	-33.651821	1695.663160	-22.556821	-183.516141	1669.747349	-84.844526	-200.240584	1726.992133	-115.529480	-110.038706	1743.671674	-48.205923	-135.520123	1790.448963	279.814568	190.062100	1418.535535	283.181928	133.145449	1315.314701	247.001544	-116.850106	1310.547716	159.779095	-305.371446	1345.708922	137.142854	-392.462239	1370.391604	122.480300	-486.966908	1374.293840	86.974059	-384.790012	1402.568636
1701	23.343320	-258.919935	-244.221005	1533.476992	271.212521	-88.111648	1501.324065	282.856893	36.615156	1476.137036	268.204970	227.408771	1440.290495	263.389204	201.033508	1475.105112	208.152625	169.503607	1586.202716	120.044483	-36.125775	1692.510732	-21.912934	-185.959321	1666.110857	-84.071053	-201.656873	1723.715733	-115.370679	-112.065250	1742.062687	-47.348492	-137.140134	1786.547183	279.643760	190.976485	1417.888797	283.056776	133.201810	1315.179165	248.396094	-117.002612	1310.959033	162.399948	-306.059508	1346.125513	141.165492	-393.527187	1370.663719	127.497103	-487.627481	1376.887929	89.535704	-384.730913	1401.327005
1702	23.351619	-258.840085	-244.192010	1529.013506	270.608393	-87.788063	1498.238012	282.472704	37.144453	1474.386050	268.039698	228.189023	1439.878327	263.155273	201.575276	1474.495462	208.247480	168.244070	1585.177582	120.624233	-38.635498	1689.313992	-21.251052	-188.452670	1662.434807	-83.276604	-203.098968	1720.409831	-115.200282	-114.123321	1740.437145	-46.477557	-138.783251	1782.596536	279.474265	191.906351	1417.235661	282.929155	133.257572	1315.044934	249.778520	-117.155823	1311.374825	165.014637	-306.755295	1346.533978	145.171403	-394.584767	1370.950465	132.492681	-488.269106	1379.567229	92.104232	-384.655235	1400.051606
1703	23.359917	-258.760235	-244.163015	1524.550019	270.004266	-87.464479	1495.151959	282.088514	37.673751	1472.635063	267.874425	228.969275	1439.466158	262.921343	202.117045	1473.885811	208.342336	166.984533	1584.152448	121.203984	-41.145221	1686.117253	-20.589170	-190.946020	1658.758758	-82.482155	-204.541063	1717.103929	-115.029885	-116.181393	1738.811603	-45.606622	-140.426368	1778.645889	279.304770	192.836216	1416.582525	282.801534	133.313334	1314.910704	251.160947	-117.309035	1311.790616	167.629326	-307.451081	1346.942444	149.177314	-395.642347	1371.237211	137.488259	-488.910731	1382.246529	94.672760	-384.579557	1398.776208
1704	23.368216	-258.680384	-244.134021	1520.086533	269.400138	-87.140894	1492.065906	281.704325	38.203048	1470.884077	267.709152	229.749527	1439.053990	262.687413	202.658813	1473.276160	208.437191	165.724997	1583.127314	121.783735	-43.654944	1682.920514	-19.927289	-193.439370	1655.082708	-81.687705	-205.983158	1713.798026	-114.859489	-118.239464	1737.186061	-44.735687	-142.069485	1774.695241	279.135275	193.766082	1415.929389	282.673913	133.369096	1314.776474	252.543373	-117.462246	1312.206408	170.244016	-308.146868	1347.350910	153.183225	-396.699927	1371.523957	142.483837	-489.552356	1384.925830	97.241289	-384.503879	1397.500810
1705	23.376515	-257.369902	-243.828350	1516.446449	268.197849	-86.826320	1489.395176	280.979062	38.501528	1469.126957	267.333052	230.033377	1438.252935	262.158580	202.801533	1472.285278	208.073595	164.404766	1581.584927	122.431982	-46.134148	1679.152647	-18.568725	-196.243102	1651.151624	-80.151233	-207.835028	1710.151147	-114.212117	-121.059288	1735.184561	-43.645832	-144.119087	1770.294569	278.792805	194.190731	1415.009450	282.351215	132.905643	1314.535009	253.608892	-117.808410	1312.616899	172.948295	-309.034085	1347.057585	156.332558	-397.169544	1372.064606	145.397063	-489.505050	1387.559897	99.628614	-383.740266	1396.488521
1706	23.384814	-256.005283	-243.510509	1512.842587	266.969246	-86.512142	1486.742716	280.238796	38.789855	1467.369568	266.947678	230.295389	1437.434772	261.616774	202.926699	1471.277625	207.689831	163.081866	1580.019785	123.083242	-48.612009	1675.359655	-17.179513	-199.060489	1647.209321	-78.582119	-209.704924	1706.489267	-113.543763	-123.912622	1733.166522	-42.546347	-146.186571	1765.874099	278.442726	194.593154	1414.077773	282.019935	132.419349	1314.288828	254.660471	-118.163062	1313.027157	175.656515	-309.929723	1346.733388	159.444208	-397.613296	1372.616425	148.218686	-489.427438	1390.191974	102.007968	-382.946391	1395.487806
1707	23.393113	-254.640664	-243.192667	1509.238725	265.740643	-86.197964	1484.090256	279.498529	39.078182	1465.612179	266.562303	230.557401	1436.616609	261.074968	203.051864	1470.269972	207.306067	161.758965	1578.454643	123.734503	-51.089870	1671.566664	-15.790302	-201.877875	1643.267018	-77.013004	-211.574820	1702.827387	-112.875409	-126.765956	1731.148484	-41.446862	-148.254055	1761.453629	278.092648	194.995578	1413.146097	281.688656	131.933055	1314.042646	255.712049	-118.517714	1313.437415	178.364734	-310.825361	1346.409191	162.555859	-398.057048	1373.168244	151.040309	-489.349825	1392.824052	104.387322	-382.152516	1394.487092
1708	23.401412	-253.276046	-242.874826	1505.634863	264.512041	-85.883786	1481.437797	278.758262	39.366508	1463.854789	266.176929	230.819413	1435.798446	260.533162	203.177030	1469.262319	206.922303	160.436065	1576.889501	124.385763	-53.567731	1667.773673	-14.401090	-204.695261	1639.324715	-75.443890	-213.444716	1699.165508	-112.207054	-129.619290	1729.130445	-40.347377	-150.321539	1757.033160	277.742569	195.398001	1412.214420	281.357376	131.446762	1313.796464	256.763627	-118.872366	1313.847673	181.072954	-311.720999	1346.084994	165.667510	-398.500800	1373.720062	153.861932	-489.272213	1395.456129	106.766675	-381.358641	1393.486377
